<svg width="33" height="25" fill="none" xmlns="http://www.w3.org/2000/svg"><path fill-rule="evenodd" clip-rule="evenodd" d="M19.27 0v13.89h5.48c0 3.069-2.152 6.848-5.49 8.122L20.623 25C27.844 23.552 33 18.184 33 10.266V0H19.27zm12.354 10.266c0 6.508-3.888 11.452-10.222 13.13v-.006l-.332-.719c3.293-1.933 5.052-5.776 5.052-8.781V12.5h-5.475V1.39h10.977v8.876zM0 0v13.89h5.501c0 3.069-2.15 6.848-5.49 8.122L1.376 25c7.22-1.448 12.353-6.816 12.353-14.734V0H0zm12.353 10.266c0 6.51-3.88 11.457-10.199 13.127l-.332-.72c3.29-1.932 5.053-5.775 5.053-8.78v-1.39H1.376V1.39h10.977v8.876z" fill="#fff"/></svg>